<svg xmlns="http://www.w3.org/2000/svg" width="160" height="22" viewBox="0 0 160 22"><path d="M0 4 Q40 18 80 12 Q120 18 160 4" fill="none" stroke="#0a2a20" stroke-width="1.6"/><rect x="17.8" y="7.5" width="4.4" height="3.5" rx="1" fill="#c9a43a"/><ellipse cx="20" cy="14" rx="3.6" ry="5" fill="#e8233f"/><ellipse cx="18.8" cy="12.4" rx="1" ry="1.6" fill="#fff" opacity=".7"/><rect x="57.8" y="11.5" width="4.4" height="3.5" rx="1" fill="#c9a43a"/><ellipse cx="60" cy="18" rx="3.6" ry="5" fill="#f5c84c"/><ellipse cx="58.8" cy="16.4" rx="1" ry="1.6" fill="#fff" opacity=".7"/><rect x="97.8" y="11.5" width="4.4" height="3.5" rx="1" fill="#c9a43a"/><ellipse cx="100" cy="18" rx="3.6" ry="5" fill="#2fbf71"/><ellipse cx="98.8" cy="16.4" rx="1" ry="1.6" fill="#fff" opacity=".7"/><rect x="137.8" y="7.5" width="4.4" height="3.5" rx="1" fill="#c9a43a"/><ellipse cx="140" cy="14" rx="3.6" ry="5" fill="#3fa9f5"/><ellipse cx="138.8" cy="12.4" rx="1" ry="1.6" fill="#fff" opacity=".7"/></svg>
